<?xml version="1.0" encoding="UTF-8"?>
<!DOCTYPE svg PUBLIC "-//W3C//DTD SVG 1.1//EN" "http://www.w3.org/Graphics/SVG/1.1/DTD/svg11.dtd">
<!-- Creator: CorelDRAW -->
<svg xmlns="http://www.w3.org/2000/svg" xml:space="preserve" width="200px" height="150px" style="shape-rendering:geometricPrecision; text-rendering:geometricPrecision; image-rendering:optimizeQuality; fill-rule:evenodd; clip-rule:evenodd"
viewBox="0 0 200 150"
 xmlns:xlink="http://www.w3.org/1999/xlink">
 <defs>
  <style type="text/css">
   <![CDATA[
    .str0 {stroke:white;stroke-width:0.05625}
    .fil2 {fill:#89BEB2}
    .fil0 {fill:#9DCD73}
    .fil1 {fill:white;fill-rule:nonzero}
   ]]>
  </style>
 </defs>
 <g id="Camada_x0020_1">
  <metadata id="CorelCorpID_0Corel-Layer"/>
  <g id="_339410112">
   <path id="_337563880" class="fil0" d="M133.257 39.6516c12.3287,-10.5014 22.1238,-14.3659 36.6467,-8.82166 16.0332,6.12092 24.5053,22.9817 18.9109,37.6356 -10.1347,26.5471 -49.3152,42.0057 -88.4955,57.4642l-0.507136 -1.00933c-39.1239,-14.7958 -78.0516,-29.6699 -88.4916,-55.8877 -5.80283,-14.5727 2.42776,-31.5526 18.3721,-37.9016 14.4422,-5.75094 24.2914,-2.02655 36.7688,8.29791 1.96484,-16.0753 6.55793,-25.5507 21.0002,-31.3016 10.871,-4.32889 22.5337,-2.60197 30.6949,3.55313 9.64954,5.75662 13.2638,14.5375 15.1005,27.971z"/>
   <path id="_337564504" class="fil1 str0" d="M68.2556 73.5875l-7.32756 8.64708 5.54439 4.69835 6.12631 -7.22946c0.564272,-0.665921 1.14316,-1.0421 1.71873,-1.11784 0.580586,-0.0713829 1.1202,0.099877 1.62468,0.527362 0.504479,0.427559 0.762033,0.931743 0.772515,1.5127 0.0111467,0.590182 -0.265748,1.21366 -0.821531,1.86946l-6.12631 7.22953 7.13866 6.04931c0.903027,0.765281 1.40367,1.54496 1.49638,2.32552 0.0925689,0.780561 -0.135089,1.48908 -0.678027,2.12982 -0.54722,0.645694 -1.21809,0.987328 -2.00832,1.01981 -0.790232,0.0324065 -1.63649,-0.32938 -2.52941,-1.08602l-16.6737 -14.1294c-0.630635,-0.534449 -1.06395,-1.06631 -1.30438,-1.59072 -0.240354,-0.52441 -0.284941,-1.06499 -0.128814,-1.61745 0.156053,-0.552387 0.497023,-1.13895 1.02291,-1.75955l8.76829 -10.3472c0.594316,-0.701206 1.19099,-1.08831 1.78516,-1.16553 0.599262,-0.0729331 1.14818,0.0975148 1.65266,0.525 0.514666,0.436122 0.777904,0.953962 0.804257,1.55706 0.0213337,0.598745 -0.262574,1.25086 -0.85689,1.95214zm26.5527 -10.1505c1.20066,1.01745 2.15234,2.14466 2.85008,3.37736 0.693381,1.23757 1.10876,2.517 1.23743,3.84825 0.128002,1.32195 -0.0302658,2.64397 -0.475394,3.95692 -0.449483,1.31804 -1.189,2.58957 -2.23214,3.82057 -1.03885,1.22591 -2.16334,2.15396 -3.38622,2.79921 -1.2186,0.640232 -2.49759,1.00394 -3.84124,1.09614 -1.33856,0.0964813 -2.66376,-0.0989912 -3.97478,-0.57719 -1.31597,-0.482481 -2.57901,-1.23211 -3.78979,-2.25812 -1.22089,-1.03465 -2.18275,-2.17035 -2.88041,-3.40298 -0.693381,-1.23765 -1.10795,-2.50778 -1.23514,-3.82035 -0.126378,-1.30327 0.0369095,-2.62109 0.490601,-3.94415 0.458046,-1.32808 1.189,-2.58957 2.2108,-3.79533 1.0345,-1.22082 2.16755,-2.15906 3.40748,-2.82446 1.23573,-0.660384 2.52328,-1.03413 3.84825,-1.12485 1.33435,-0.0913878 2.65955,0.104085 3.97552,0.586565 1.31604,0.482481 2.58418,1.23639 3.79496,2.2624zm-3.43302 4.05111c-1.64461,-1.3937 -3.23386,-2.11639 -4.76339,-2.17308 -1.52872,-0.0472441 -2.80874,0.532308 -3.84324,1.7532 -0.671236,0.792003 -1.05007,1.65849 -1.15017,2.60514 -0.100098,0.946654 0.10689,1.91951 0.630414,2.91791 0.524336,1.00763 1.31575,1.95569 2.38029,2.85775 1.05436,0.893504 2.10938,1.51011 3.17074,1.86349 1.06063,0.34407 2.05084,0.403051 2.97402,0.162623 0.927461,-0.245522 1.72854,-0.771482 2.41255,-1.57869 1.03457,-1.22089 1.39636,-2.57857 1.08876,-4.08743 -0.306865,-1.49948 -1.27544,-2.94434 -2.89998,-4.32092zm11.897 -9.22154l3.37508 2.86004c0.817249,0.692569 1.26526,1.40153 1.34904,2.1313 0.0837107,0.7297 -0.124237,1.39429 -0.624434,1.98462 -0.495842,0.585163 -1.10455,0.884203 -1.8389,0.911959 -0.730069,0.0227362 -1.49867,-0.307899 -2.30588,-0.991905l-11.2351 -9.52072c-1.81115,-1.53477 -2.16349,-2.96021 -1.05192,-4.2719 0.568553,-0.67094 1.18657,-0.970645 1.86267,-0.909228 0.67596,0.0614912 1.43836,0.430217 2.29134,1.10101 -0.421211,-1.18036 -0.62783,-2.2049 -0.619784,-3.0736 0.00797244,-0.868627 0.368947,-1.72419 1.08721,-2.57178 0.718184,-0.847515 1.62697,-1.49033 2.72621,-1.9283 1.09931,-0.438042 1.99695,-0.362008 2.69823,0.232234 0.489346,0.414715 0.756866,0.927461 0.784031,1.53986 0.0364666,0.61159 -0.119218,1.11238 -0.452732,1.50591 -0.123942,0.146309 -0.518357,0.427559 -1.17874,0.838731 -0.66474,0.416191 -1.17874,0.838657 -1.54643,1.27249 -0.500197,0.590256 -0.754208,1.20709 -0.762771,1.84127 -0.00361713,0.638386 0.207505,1.31996 0.642668,2.04412 0.435163,0.724164 1.04195,1.48103 1.82104,2.27997 0.778421,0.789567 1.76833,1.69784 2.97918,2.72392z"/>
   <path id="_337564024" class="fil1 str0" d="M106.399 80.202l15.7706 13.3641 7.54134 -8.89932c0.598524,-0.7063 1.23174,-1.10581 1.90054,-1.18915 0.667988,-0.0927904 1.26002,0.0882136 1.77963,0.528617 0.534744,0.453101 0.805438,1.0032 0.822048,1.65864 0.0115158,0.651231 -0.288041,1.34225 -0.895055,2.05859l-8.98207 10.5994c-0.808022,0.953519 -1.60564,1.46516 -2.3842,1.5248 -0.778642,0.0595719 -1.64004,-0.314985 -2.58344,-1.11444l-16.6888 -14.1422c-0.882874,-0.748229 -1.37776,-1.51425 -1.48398,-2.28905 -0.106299,-0.774804 0.116339,-1.48753 0.66784,-2.13831 0.555783,-0.655881 1.22591,-1.00682 2.01105,-1.0435 0.785212,-0.036688 1.63147,0.325025 2.52446,1.08174zm20.6616 -12.9671l11.664 9.88413c0.80721,0.68408 1.25514,1.39311 1.34395,2.12709 0.0888042,0.733982 -0.11907,1.39857 -0.619267,1.98883 -0.504479,0.59535 -1.12249,0.895055 -1.85839,0.904208 -0.735901,0.00915355 -1.49941,-0.3172 -2.28639,-0.98408l-11.5429 -9.7816c-0.802117,-0.679725 -1.24429,-1.3751 -1.33583,-2.08546 -0.0915355,-0.710212 0.112869,-1.36048 0.617348,-1.95583 0.500197,-0.590256 1.11666,-0.908563 1.8451,-0.95005 0.728519,-0.0413386 1.45608,0.245743 2.17242,0.852756zm-5.86012 -1.53344c-0.474582,0.55999 -1.05214,0.893947 -1.73799,0.997515 -0.680832,0.107849 -1.34122,-0.105044 -1.96676,-0.635212 -0.575123,-0.487353 -0.868996,-1.09178 -0.891068,-1.81255 -0.0219242,-0.720694 0.193184,-1.3531 0.650714,-1.89294 0.444538,-0.524631 1.00431,-0.847737 1.6844,-0.964887 0.675,-0.121358 1.33538,0.0914617 1.97606,0.6344 0.620522,0.525812 0.938091,1.13305 0.952781,1.82148 0.0146161,0.688509 -0.206472,1.30733 -0.668135,1.85219zm7.18554 -3.94813l0.812304 -0.958539 -1.21085 -1.02608c-1.2612,-1.06875 -2.12827,-2.08096 -2.60566,-3.03145 -0.468012,-0.951378 -0.55534,-1.95288 -0.243602,-3.0062 0.30753,-1.04823 1.0252,-2.24291 2.14961,-3.56974 1.99643,-2.35601 3.56774,-3.04415 4.72301,-2.06516 0.373376,0.316388 0.588558,0.706816 0.646506,1.18066 0.057874,0.473696 -0.0546998,0.872392 -0.341117,1.21041 -0.132505,0.156422 -0.393676,0.403273 -0.773992,0.739666 -0.385482,0.332111 -0.689395,0.629306 -0.915945,0.896679 -0.619931,0.731546 -0.796285,1.37945 -0.542791,1.94971 0.253568,0.570251 0.774287,1.1935 1.57138,1.86895l0.963559 0.816585 0.837993 -0.988878c1.30386,-1.53868 2.41779,-1.91221 3.34104,-1.1298 0.660901,0.560064 0.908637,1.11666 0.738928,1.67488 -0.169784,0.558293 -0.557702,1.2003 -1.16907,1.92173l-0.837919 0.988805 10.6852 9.05478c0.797097,0.675443 1.2451,1.38447 1.34314,2.11764 0.0981792,0.733243 -0.109769,1.39791 -0.618455,1.9982 -0.487353,0.575123 -1.09606,0.874164 -1.83543,0.897638 -0.73937,0.0235482 -1.51225,-0.301993 -2.30935,-0.97751l-10.6853 -9.05478 -0.940527 1.10994c-0.50876,0.600296 -1.03826,0.949016 -1.58423,1.04099 -0.5453,0.101353 -1.03531,-0.0364666 -1.46922,-0.404085 -0.963485,-0.816511 -0.874976,-1.90298 0.270768,-3.25505zm26.8535 -13.7787l-6.6863 7.89028c0.926797,0.768012 1.89213,1.26533 2.89688,1.5014 1.00482,0.236073 1.93561,0.201378 2.79323,-0.0946359 0.862648,-0.291806 1.59929,-0.803002 2.20637,-1.51942 0.410433,-0.484326 0.726821,-0.970276 0.948573,-1.46715 0.226698,-0.492594 0.379356,-1.03073 0.453544,-1.60925 0.0784695,-0.583539 0.11191,-1.14471 0.0994341,-1.69259 -0.00812008,-0.552978 -0.0352116,-1.27795 -0.0818652,-2.1843 -0.00125492,-0.356472 0.155832,-0.726083 0.480783,-1.10942 0.350566,-0.413755 0.753027,-0.653445 1.19808,-0.718258 0.440773,-0.0598672 0.869735,0.0782481 1.28342,0.428814 0.363263,0.307825 0.668135,0.817471 0.918086,1.51469 0.24065,0.697958 0.346432,1.52436 0.303765,2.48504 -0.0383858,0.95566 -0.276378,1.99348 -0.723352,3.11413 -0.441954,1.12507 -1.14641,2.25295 -2.10406,3.38305 -2.19744,2.59311 -4.64402,3.98696 -7.3407,4.1721 -2.69653,0.185212 -5.31578,-0.794882 -7.84836,-2.94102 -1.19063,-1.00896 -2.15086,-2.12599 -2.86646,-3.34776 -0.719735,-1.21676 -1.15224,-2.47603 -1.31088,-3.77193 -0.149262,-1.29663 0.000369095,-2.60861 0.458342,-3.93676 0.453839,-1.32306 1.19328,-2.59459 2.21937,-3.80544 1.33804,-1.57906 2.81678,-2.64899 4.43608,-3.20965 1.62365,-0.565748 3.19518,-0.681496 4.7284,-0.353002 1.52894,0.333514 2.84291,0.961565 3.93772,1.88925 1.01405,0.859326 1.4219,1.70773 1.23292,2.54439 -0.193996,0.832456 -0.739444,1.78302 -1.63302,2.83745zm-8.97668 5.94936l6.19894 -7.31516c-1.45851,-1.07126 -2.80911,-1.57441 -4.03738,-1.50576 -1.23337,0.0643701 -2.29459,0.621186 -3.18809,1.67562 -0.855045,1.00896 -1.20377,2.12628 -1.05989,3.35773 0.148967,1.23566 0.84471,2.50135 2.08642,3.78758z"/>
   <path id="_337563976" class="fil2" d="M102.983 122.183c29.8648,0 54.602,8.61319 58.9586,19.8539 -13.9568,-4.66838 -34.0102,-7.59619 -56.2962,-7.59619 -25.6623,0 -48.3665,3.8814 -62.2075,9.83335 1.73253,-12.3144 27.7278,-22.0911 59.5452,-22.0911z"/>
  </g>
 </g>
</svg>
